<svg width="100" height="58" viewBox="0 0 100 58" fill="none" xmlns="http://www.w3.org/2000/svg">
<rect x="99.5" y="57.5" width="99" height="57" rx="28.5" transform="rotate(180 99.5 57.5)" stroke="white" stroke-opacity="0.1"/>
<mask id="path-2-inside-1_138_633" fill="white">
<path fill-rule="evenodd" clip-rule="evenodd" d="M19.0007 29.5L23.7062 34L23.7062 29.9746L81 29.9746L81 29.0256L23.7062 29.0257L23.7063 25L19.0007 29.5Z"/>
</mask>
<path fill-rule="evenodd" clip-rule="evenodd" d="M19.0007 29.5L23.7062 34L23.7062 29.9746L81 29.9746L81 29.0256L23.7062 29.0257L23.7063 25L19.0007 29.5Z" fill="#000032"/>
<path d="M23.7062 34L23.0151 34.7227L24.7062 36.34L24.7062 34L23.7062 34ZM19.0007 29.5L18.3096 28.7773L17.5539 29.5L18.3096 30.2227L19.0007 29.5ZM23.7062 29.9746L23.7062 28.9746L22.7062 28.9746L22.7062 29.9746L23.7062 29.9746ZM81 29.9746L81 30.9746L82 30.9746L82 29.9746L81 29.9746ZM81 29.0256L82 29.0256L82 28.0256L81 28.0256L81 29.0256ZM23.7062 29.0257L22.7062 29.0256L22.7062 30.0257L23.7062 30.0257L23.7062 29.0257ZM23.7063 25L24.7063 25L24.7063 22.66L23.0151 24.2773L23.7063 25ZM24.3974 33.2773L19.6919 28.7773L18.3096 30.2227L23.0151 34.7227L24.3974 33.2773ZM22.7062 29.9746L22.7062 34L24.7062 34L24.7062 29.9746L22.7062 29.9746ZM81 28.9746L23.7062 28.9746L23.7062 30.9746L81 30.9746L81 28.9746ZM80 29.0256L80 29.9746L82 29.9746L82 29.0256L80 29.0256ZM23.7062 30.0257L81 30.0256L81 28.0256L23.7062 28.0257L23.7062 30.0257ZM22.7063 25L22.7062 29.0256L24.7062 29.0257L24.7063 25L22.7063 25ZM19.6919 30.2227L24.3974 25.7227L23.0151 24.2773L18.3096 28.7773L19.6919 30.2227Z" fill="white" mask="url(#path-2-inside-1_138_633)"/>
</svg>
